<svg xmlns="http://www.w3.org/2000/svg" viewBox="0 0 360 260" role="img" aria-labelledby="title desc">
  <title id="title">Creative coder illustration</title>
  <desc id="desc">A laptop with colorful creative coding waves and stars.</desc>
  <defs>
    <linearGradient id="bg" x1="0" x2="1" y1="0" y2="1">
      <stop offset="0" stop-color="#090f24"/>
      <stop offset="1" stop-color="#2a0f26"/>
    </linearGradient>
    <linearGradient id="wave" x1="0" x2="1" y1="0" y2="1">
      <stop offset="0" stop-color="#00ffff"/>
      <stop offset="1" stop-color="#ff2f5f"/>
    </linearGradient>
  </defs>
  <rect width="360" height="260" rx="20" fill="url(#bg)"/>
  <rect x="92" y="130" width="176" height="74" rx="10" fill="#0c1d35" stroke="#304f77"/>
  <rect x="108" y="78" width="144" height="82" rx="10" fill="#132d4e" stroke="#56ffd6"/>
  <path d="M118 132 C138 96, 168 170, 186 132 C206 96, 234 170, 246 132" fill="none" stroke="url(#wave)" stroke-width="6" stroke-linecap="round"/>
  <circle cx="136" cy="106" r="5" fill="#ffd166"/>
  <circle cx="186" cy="94" r="4" fill="#56ffd6"/>
  <circle cx="222" cy="114" r="5" fill="#ff7b95"/>
  <path d="M72 58 l7 13 14 2 -10 10 2 14 -13 -7 -13 7 2 -14 -10 -10 14 -2z" fill="#ffd166" opacity="0.75"/>
  <path d="M296 42 l5 9 10 1 -7 7 2 10 -10 -5 -9 5 1 -10 -7 -7 10 -1z" fill="#56ffd6" opacity="0.75"/>
</svg>
